<?xml version="1.0" encoding="iso-8859-1"?>
<!-- Generator: Adobe Illustrator 19.0.0, SVG Export Plug-In . SVG Version: 6.00 Build 0)  -->
<svg version="1.1" id="Layer_1" xmlns="http://www.w3.org/2000/svg" xmlns:xlink="http://www.w3.org/1999/xlink" x="0px" y="0px"
	 viewBox="0 0 512.005 512.005" style="enable-background:new 0 0 512.005 512.005;" xml:space="preserve">
<path style="fill:#7E7E82;" d="M59.466,276.279c4.468,43.624,23.412,86.047,56.838,119.473
	c38.583,38.581,89.151,57.872,139.72,57.872s101.139-19.291,139.72-57.872c59.08-59.082,72.926-146.267,41.541-218.519
	c-9.606-22.119-23.452-42.839-41.539-60.923c-1.492-1.491-3.004-2.947-4.532-4.381c-0.478-0.451-0.967-0.887-1.449-1.331
	c-1.061-0.977-2.126-1.946-3.203-2.895c-0.571-0.504-1.149-0.999-1.724-1.495c-1.018-0.877-2.042-1.743-3.074-2.596
	c-0.59-0.487-1.183-0.974-1.777-1.455c-1.072-0.868-2.155-1.718-3.243-2.557c-0.546-0.424-1.09-0.851-1.64-1.267
	c-1.331-1.009-2.674-1.993-4.026-2.964c-0.307-0.22-0.61-0.45-0.918-0.668c-1.676-1.188-3.365-2.346-5.071-3.477
	c-0.398-0.264-0.802-0.516-1.201-0.777c-1.303-0.849-2.608-1.689-3.926-2.504c-0.588-0.365-1.181-0.718-1.771-1.076
	c-1.152-0.698-2.31-1.384-3.474-2.056c-0.635-0.367-1.272-0.729-1.909-1.087c-1.161-0.653-2.327-1.289-3.496-1.917
	c-0.615-0.331-1.234-0.664-1.853-0.988c-1.301-0.68-2.61-1.338-3.924-1.988c-0.482-0.238-0.961-0.484-1.445-0.719
	c-1.811-0.876-3.633-1.728-5.465-2.545c-0.173-0.078-0.349-0.148-0.524-0.226c-1.644-0.728-3.296-1.432-4.956-2.113
	c-0.584-0.242-1.174-0.469-1.76-0.702c-1.265-0.505-2.53-1.001-3.802-1.477c-0.675-0.252-1.352-0.499-2.029-0.745
	c-1.21-0.44-2.424-0.867-3.643-1.282c-0.686-0.234-1.369-0.467-2.056-0.692c-1.274-0.418-2.552-0.818-3.829-1.21
	c-0.617-0.188-1.232-0.383-1.849-0.565c-1.644-0.485-3.289-0.947-4.942-1.388c-0.222-0.06-0.442-0.129-0.664-0.187l-0.025-0.004
	c-10.594-2.791-21.375-4.682-32.224-5.685l-0.078-0.014c-0.706-0.065-1.416-0.109-2.122-0.166c-0.95-0.078-1.9-0.16-2.852-0.224
	c-0.834-0.056-1.671-0.093-2.506-0.14c-0.928-0.05-1.858-0.106-2.788-0.144c-0.861-0.034-1.722-0.05-2.583-0.073
	c-0.906-0.024-1.809-0.056-2.714-0.068c-0.884-0.011-1.769-0.004-2.653-0.004c-0.884,0-1.769-0.007-2.65,0.004
	c-0.906,0.013-1.811,0.044-2.717,0.068c-0.861,0.023-1.722,0.039-2.583,0.073c-0.928,0.038-1.86,0.094-2.788,0.144
	c-0.835,0.047-1.671,0.083-2.506,0.14c-0.952,0.064-1.9,0.146-2.852,0.224c-0.706,0.057-1.414,0.102-2.12,0.166l-0.08,0.014
	c-10.847,1.003-21.627,2.894-32.222,5.685l-0.025,0.004c-0.224,0.058-0.444,0.128-0.666,0.187c-1.65,0.441-3.298,0.902-4.94,1.388
	c-0.617,0.182-1.234,0.378-1.849,0.565c-1.28,0.392-2.557,0.792-3.831,1.21c-0.686,0.225-1.371,0.458-2.056,0.692
	c-1.216,0.416-2.431,0.842-3.643,1.282c-0.677,0.246-1.352,0.492-2.027,0.745c-1.274,0.477-2.539,0.973-3.802,1.477
	c-0.588,0.234-1.176,0.461-1.762,0.702c-1.66,0.681-3.313,1.385-4.957,2.113c-0.173,0.078-0.349,0.148-0.524,0.226
	c-1.832,0.818-3.651,1.669-5.464,2.545c-0.482,0.235-0.963,0.481-1.445,0.719c-1.314,0.65-2.623,1.307-3.924,1.988
	c-0.62,0.324-1.236,0.656-1.853,0.988c-1.17,0.627-2.335,1.264-3.495,1.917c-0.639,0.359-1.276,0.72-1.911,1.087
	c-1.163,0.672-2.321,1.359-3.472,2.056c-0.592,0.357-1.185,0.711-1.773,1.076c-1.316,0.816-2.623,1.654-3.924,2.504
	c-0.4,0.261-0.804,0.512-1.203,0.777c-1.703,1.131-3.396,2.289-5.071,3.477c-0.307,0.219-0.61,0.448-0.916,0.668
	c-1.352,0.971-2.695,1.955-4.028,2.964c-0.55,0.416-1.094,0.844-1.64,1.267c-1.087,0.839-2.168,1.691-3.243,2.557
	c-0.595,0.48-1.185,0.967-1.775,1.455c-1.032,0.854-2.056,1.72-3.076,2.596c-0.575,0.496-1.151,0.991-1.722,1.495
	c-1.077,0.949-2.144,1.918-3.203,2.895c-0.484,0.444-0.971,0.881-1.451,1.331c-1.525,1.434-3.04,2.89-4.532,4.381
	c-8.439,8.44-15.955,17.453-22.549,26.915c-1.883,2.704-3.691,5.443-5.424,8.217c-5.2,8.321-9.721,16.944-13.564,25.792
	c-10.125,23.31-15.543,48.177-16.252,73.152"/>
<path style="fill:#A4A4A5;" d="M141.285,141.287c-63.373,63.373-63.373,166.113,0,229.484
	c63.367,63.37,166.111,63.373,229.482-0.001c63.371-63.37,63.371-166.114,0-229.483C307.396,77.918,204.653,77.918,141.285,141.287z
	"/>
<g style="opacity:0.15;">
	<path style="fill:#202020;" d="M167.892,370.772c-63.373-63.371-63.373-166.111,0-229.484
		c28.297-28.298,64.447-43.949,101.437-46.974c-45.843-3.749-92.973,11.902-128.045,46.974c-63.373,63.373-63.373,166.113,0,229.484
		c35.069,35.072,82.201,50.723,128.045,46.974C232.339,414.721,196.189,399.071,167.892,370.772z"/>
</g>
<path style="fill:#7E7E82;" d="M155.145,86.08c-13.855,8.237-26.922,18.311-38.843,30.23
	c-11.919,11.921-21.991,24.985-30.226,38.841L60.38,129.455l69.07-69.071L155.145,86.08z"/>
<path style="fill:#DCE0E2;" d="M125.169,15.559l6.605,6.604c9.913,9.915,9.913,25.986,0,35.898l-2.323,2.324l-18.349-18.349
	l-69.07,69.07l18.347,18.347l-2.324,2.324c-9.913,9.914-25.985,9.912-35.897-0.002l-6.605-6.604
	c-9.913-9.916-9.915-25.983-0.002-35.898l73.718-73.718C99.181,5.646,115.253,5.644,125.169,15.559z"/>
<path style="fill:#7E7E82;" d="M425.914,356.849c-8.237,13.852-18.31,26.922-30.231,38.84
	c-11.919,11.92-24.986,21.994-38.841,30.231l25.698,25.696l69.07-69.071L425.914,356.849z"/>
<path style="fill:#DCE0E2;" d="M496.433,386.827l-6.603-6.605c-9.913-9.914-25.985-9.911-35.897-0.002l-2.324,2.324l18.346,18.347
	l-69.068,69.07l-18.347-18.347l-2.323,2.324c-9.917,9.914-9.913,25.982,0,35.896l6.605,6.605c9.913,9.914,25.98,9.916,35.897,0.002
	l73.718-73.719C506.349,412.812,506.349,396.74,496.433,386.827z"/>
<g>
	<path style="fill:#E95353;" d="M342.914,334.859c24.386-24.188,36.201-56.447,30.836-84.19
		c-2.289-11.838-13.743-19.578-25.579-17.289c-11.837,2.291-19.577,13.742-17.288,25.578c2.128,11.002-2.835,29.152-18.716,44.905
		c-15.881,15.752-34.07,20.568-45.055,18.351c-11.817-2.383-23.33,5.263-25.716,17.082c-2.384,11.817,5.261,23.331,17.081,25.717
		C286.175,370.601,318.53,359.048,342.914,334.859z"/>
	<path style="fill:#E95353;" d="M286.293,279.724c24.386-24.188,36.199-56.447,30.834-84.191
		c-2.289-11.838-13.741-19.578-25.576-17.289c-11.839,2.291-19.577,13.741-17.288,25.578c2.128,11.002-2.837,29.152-18.718,44.905
		c-15.879,15.752-34.071,20.568-45.053,18.351c-11.817-2.383-23.33,5.263-25.716,17.082c-2.386,11.817,5.261,23.331,17.081,25.717
		C229.555,315.466,261.908,303.913,286.293,279.724z"/>
	<path style="fill:#E95353;" d="M229.674,224.588c24.386-24.188,36.199-56.447,30.834-84.191
		c-2.289-11.838-13.741-19.578-25.576-17.289c-11.839,2.291-19.577,13.742-17.288,25.578c2.128,11.002-2.837,29.152-18.718,44.905
		c-15.879,15.752-34.071,20.568-45.053,18.351c-11.817-2.383-23.33,5.263-25.716,17.081c-2.386,11.817,5.261,23.331,17.08,25.717
		C172.935,260.33,205.287,248.777,229.674,224.588z"/>
</g>
<g>
	<path style="fill:#202020;" d="M502.178,381.083l-6.603-6.605c-6.329-6.33-14.743-9.816-23.693-9.816
		c-7.317,0-14.273,2.331-20.027,6.638l-15.732-15.732c10.741-19.402,18.29-40.507,22.31-62.69
		c7.307-40.327,2.57-81.437-13.698-118.883c-10.285-23.68-24.835-45.021-43.245-63.433c-1.453-1.451-2.995-2.943-4.705-4.548
		c-0.339-0.32-0.682-0.633-1.026-0.946l-0.493-0.452c-1.106-1.017-2.213-2.025-3.333-3.011c-0.496-0.438-0.998-0.87-1.498-1.301
		l-0.294-0.253c-1.06-0.913-2.126-1.815-3.203-2.706c-0.613-0.507-1.229-1.013-1.844-1.509c-1.119-0.906-2.25-1.793-3.374-2.661
		l-0.447-0.348c-0.422-0.329-0.845-0.657-1.26-0.971c-1.386-1.053-2.787-2.077-4.2-3.092l-0.336-0.245
		c-0.205-0.152-0.412-0.302-0.618-0.45c-1.721-1.221-3.497-2.438-5.272-3.614c-0.269-0.179-0.538-0.352-0.81-0.525l-0.453-0.292
		c-1.357-0.884-2.717-1.757-4.08-2.601c-0.453-0.281-0.908-0.556-1.363-0.831l-0.487-0.294c-1.2-0.726-2.406-1.441-3.61-2.137
		c-0.662-0.383-1.326-0.76-1.996-1.137c-1.208-0.679-2.42-1.342-3.629-1.99l-0.155-0.082c-0.595-0.32-1.189-0.64-1.783-0.95
		c-1.355-0.708-2.72-1.394-4.093-2.073l-0.548-0.274c-0.315-0.158-0.63-0.316-0.954-0.474c-1.99-0.962-3.851-1.828-5.661-2.636
		c-0.151-0.068-0.3-0.132-0.452-0.197l-0.126-0.054c-1.704-0.754-3.441-1.495-5.144-2.192c-0.431-0.179-0.865-0.35-1.299-0.521
		l-0.553-0.219c-1.317-0.524-2.634-1.041-3.961-1.539c-0.701-0.263-1.406-0.519-2.101-0.772c-1.262-0.458-2.527-0.902-3.798-1.336
		c-0.716-0.245-1.43-0.487-2.146-0.721c-1.323-0.434-2.649-0.849-3.994-1.262l-0.641-0.198c-0.428-0.132-0.854-0.264-1.275-0.388
		c-1.712-0.507-3.427-0.987-5.149-1.446l-0.144-0.041c-0.185-0.054-0.37-0.107-0.557-0.156c-0.056-0.015-0.113-0.029-0.17-0.043
		c-10.806-2.837-21.952-4.807-33.141-5.853c-0.112-0.016-0.223-0.027-0.337-0.038c-0.479-0.044-0.96-0.079-1.438-0.115l-1.262-0.1
		c-0.823-0.068-1.646-0.136-2.466-0.192c-0.597-0.04-1.196-0.07-1.795-0.103l-1.532-0.082c-0.727-0.04-1.454-0.079-2.193-0.11
		c-0.651-0.025-1.3-0.042-1.951-0.058l-1.477-0.039c-0.692-0.021-1.382-0.04-2.092-0.05c-0.68-0.009-1.364-0.006-2.043-0.006
		l-0.707,0.001l-0.707-0.001c-0.681-0.001-1.362-0.002-2.057,0.006c-0.693,0.01-1.385,0.029-2.079,0.05l-1.475,0.039
		c-0.651,0.016-1.3,0.032-1.964,0.058c-0.727,0.03-1.456,0.069-2.183,0.11l-1.529,0.082c-0.598,0.031-1.196,0.063-1.79,0.103
		c-0.815,0.054-1.626,0.121-2.439,0.19l-1.291,0.102c-0.479,0.035-0.96,0.07-1.438,0.115c-0.089,0.008-0.191,0.021-0.294,0.034
		c-11.199,1.046-22.358,3.015-33.171,5.856c-0.055,0.013-0.109,0.026-0.164,0.04c-0.195,0.051-0.387,0.106-0.579,0.161l-0.144,0.041
		c-1.719,0.459-3.436,0.939-5.137,1.443c-0.444,0.131-0.888,0.268-1.331,0.405l-0.603,0.186c-1.331,0.408-2.659,0.824-3.987,1.26
		c-0.714,0.235-1.428,0.477-2.147,0.722c-1.264,0.431-2.527,0.875-3.783,1.331c-0.704,0.255-1.407,0.511-2.108,0.774
		c-1.329,0.497-2.648,1.015-3.952,1.536l-0.513,0.204c-0.447,0.177-0.894,0.353-1.331,0.533c-1.721,0.705-3.457,1.446-5.206,2.22
		l-0.504,0.217c-1.81,0.807-3.67,1.673-5.709,2.659c-0.304,0.148-0.61,0.3-0.913,0.454l-0.576,0.287
		c-1.368,0.677-2.732,1.363-4.085,2.069c-0.514,0.269-1.025,0.543-1.536,0.818l-0.395,0.212c-0.8,0.429-1.593,0.87-2.387,1.308
		l-15.819-15.815c4.308-5.753,6.639-12.709,6.639-20.024c0-8.95-3.486-17.364-9.816-23.695l-6.604-6.604
		C124.584,3.487,116.168,0,107.218,0S89.854,3.486,83.525,9.814L9.808,83.533c-13.061,13.063-13.061,34.319,0.003,47.386
		l6.604,6.603c6.329,6.331,14.743,9.817,23.694,9.817c7.317,0,14.273-2.332,20.026-6.64l15.801,15.801
		c-3.15,5.695-6.039,11.549-8.622,17.496c-10.478,24.125-16.171,49.749-16.921,76.158c-0.127,4.485,3.405,8.224,7.89,8.351
		c4.446,0.143,8.224-3.407,8.351-7.89c0.691-24.33,5.934-47.931,15.582-70.146c3.148-7.245,6.785-14.338,10.826-21.142
		c0.005-0.009,0.012-0.017,0.018-0.026c0.945-1.59,1.918-3.164,2.91-4.726c0.157-0.248,0.317-0.494,0.477-0.742
		c0.869-1.353,1.754-2.695,2.657-4.026c0.168-0.247,0.334-0.495,0.503-0.741c2.089-3.048,4.271-6.037,6.539-8.964
		c0.182-0.235,0.366-0.468,0.549-0.702c0.98-1.253,1.978-2.493,2.991-3.723c0.186-0.226,0.369-0.455,0.558-0.68
		c1.139-1.37,2.3-2.725,3.479-4.065c0.243-0.276,0.492-0.547,0.737-0.822c0.946-1.063,1.904-2.114,2.875-3.156
		c0.347-0.372,0.692-0.744,1.041-1.112c1.168-1.234,2.347-2.458,3.548-3.661c0.042-0.042,0.082-0.086,0.125-0.127
		c0.016-0.016,0.032-0.032,0.049-0.049c1.248-1.247,2.517-2.471,3.798-3.681c0.167-0.158,0.327-0.311,0.499-0.472
		c0.268-0.251,0.537-0.496,0.806-0.741c0.321-0.297,0.646-0.587,0.968-0.882c0.893-0.82,1.787-1.636,2.693-2.435
		c0.253-0.223,0.508-0.441,0.761-0.661c0.559-0.486,1.124-0.964,1.688-1.444c0.716-0.61,1.431-1.221,2.152-1.816
		c0.221-0.182,0.442-0.362,0.662-0.543c0.728-0.596,1.462-1.182,2.198-1.767c0.651-0.516,1.299-1.033,1.959-1.545l0.272-0.211
		c0.88-0.677,1.768-1.342,2.659-2.004c0.701-0.519,1.402-1.041,2.107-1.55c1.334-0.963,2.673-1.918,4.031-2.845
		c0.003-0.002,0.005-0.003,0.009-0.005c1.258-0.859,2.535-1.689,3.813-2.516c0.738-0.479,1.481-0.95,2.225-1.419
		c0.96-0.602,1.924-1.197,2.893-1.783c1.03-0.623,2.064-1.239,3.111-1.842c0.604-0.349,1.211-0.694,1.828-1.041
		c1.11-0.625,2.227-1.235,3.347-1.835l0.406-0.218c0.456-0.246,0.912-0.49,1.373-0.731c1.247-0.652,2.502-1.282,3.755-1.902
		l1.384-0.69c1.868-0.902,3.583-1.701,5.236-2.439l0.109-0.045c0.152-0.065,0.301-0.129,0.399-0.172
		c1.568-0.695,3.167-1.377,4.76-2.03c0.37-0.153,0.743-0.299,1.115-0.445l0.569-0.225c1.209-0.482,2.419-0.959,3.637-1.415
		c0.649-0.243,1.295-0.479,1.95-0.716c1.163-0.422,2.329-0.832,3.493-1.229c0.656-0.224,1.314-0.447,1.966-0.662
		c1.224-0.401,2.451-0.785,3.675-1.16l0.655-0.203c0.37-0.115,0.742-0.23,1.121-0.341c1.573-0.466,3.152-0.908,4.729-1.329
		c0.159-0.043,0.32-0.089,0.479-0.135l0.07-0.021c0.039-0.01,0.079-0.021,0.118-0.029c10.069-2.653,20.465-4.489,30.899-5.453
		c0.079-0.008,0.17-0.017,0.263-0.029c0.323-0.027,0.644-0.051,0.967-0.075l1.441-0.113c0.725-0.061,1.448-0.12,2.177-0.169
		c0.517-0.035,1.032-0.062,1.549-0.088l1.584-0.086c0.651-0.036,1.302-0.071,1.939-0.099c0.569-0.023,1.139-0.036,1.709-0.05
		l1.552-0.042c0.611-0.018,1.222-0.036,1.816-0.044c0.603-0.007,1.209-0.004,1.814-0.004l0.74,0.001l0.74-0.001
		c0.603,0,1.211-0.002,1.799,0.004c0.61,0.009,1.22,0.026,1.828,0.044l1.554,0.042c0.57,0.014,1.141,0.027,1.696,0.05
		c0.651,0.026,1.3,0.063,1.949,0.099l1.588,0.086c0.517,0.026,1.031,0.053,1.551,0.088c0.737,0.049,1.47,0.11,2.204,0.171
		l1.414,0.112c0.311,0.023,0.621,0.045,0.93,0.071c0.099,0.013,0.198,0.024,0.296,0.032c10.436,0.965,20.832,2.799,30.901,5.453
		c0.034,0.009,0.068,0.017,0.102,0.025l0.073,0.022c0.164,0.048,0.328,0.094,0.49,0.138c1.584,0.424,3.161,0.865,4.742,1.331
		c0.354,0.105,0.707,0.214,1.06,0.324l0.699,0.216c1.229,0.377,2.458,0.761,3.684,1.163c0.656,0.216,1.31,0.438,1.964,0.661
		c1.168,0.398,2.331,0.806,3.497,1.23c0.65,0.236,1.299,0.473,1.943,0.714c1.22,0.457,2.433,0.933,3.645,1.417l0.611,0.243
		c0.353,0.14,0.706,0.278,1.076,0.43c1.585,0.651,3.182,1.331,4.732,2.018l0.521,0.224c1.688,0.753,3.401,1.551,5.232,2.437
		c0.248,0.119,0.493,0.244,0.74,0.367l0.649,0.325c1.26,0.622,2.514,1.252,3.765,1.906c0.538,0.281,1.074,0.57,1.61,0.858
		l0.165,0.088c1.122,0.603,2.241,1.213,3.35,1.836c0.61,0.343,1.22,0.69,1.832,1.044c1.117,0.644,2.227,1.304,3.326,1.969
		l0.509,0.307c0.396,0.239,0.793,0.478,1.196,0.729c1.264,0.782,2.515,1.587,3.757,2.396l0.582,0.376
		c0.19,0.12,0.379,0.242,0.573,0.372c1.643,1.089,3.279,2.211,4.862,3.333l0.877,0.64c1.295,0.929,2.582,1.873,3.867,2.847
		c0.364,0.275,0.725,0.556,1.084,0.836l0.487,0.379c1.04,0.803,2.075,1.616,3.104,2.448c0.571,0.463,1.141,0.929,1.705,1.396
		c0.99,0.819,1.971,1.649,2.946,2.489l0.299,0.257c0.454,0.391,0.908,0.782,1.359,1.18c1.032,0.911,2.054,1.84,3.07,2.776
		l0.556,0.508c0.276,0.251,0.553,0.504,0.836,0.77c1.595,1.499,3.018,2.874,4.349,4.205c16.961,16.96,30.363,36.615,39.831,58.415
		c24.61,56.654,20.097,119.753-10.059,171.079c-0.309,0.357-0.598,0.735-0.844,1.148c-8.04,13.52-17.795,26.052-28.994,37.25
		c-11.203,11.204-23.735,20.959-37.248,28.993c-0.354,0.21-0.68,0.454-0.994,0.711c-28.712,16.853-61.498,25.85-95.671,25.85
		c-50.609,0-98.189-19.707-133.975-55.491c-30.727-30.728-50.082-71.412-54.501-114.557c-0.458-4.461-4.452-7.712-8.909-7.253
		c-4.464,0.457-7.711,4.445-7.254,8.91c4.798,46.851,25.814,91.026,59.176,124.389c38.855,38.853,90.515,60.25,145.464,60.25
		c35.401,0,69.43-8.894,99.555-25.601l15.717,15.715c-4.309,5.754-6.641,12.711-6.64,20.027c0,8.948,3.487,17.361,9.816,23.691
		l6.605,6.604c6.329,6.33,14.743,9.817,23.694,9.817c0.001,0,0.001,0,0.002,0c8.947,0,17.36-3.486,23.69-9.814l73.717-73.719
		c6.33-6.328,9.816-14.742,9.816-23.693C511.992,395.824,508.507,387.411,502.178,381.083z M60.38,117.966l-6.86-6.859
		l57.581-57.582l6.859,6.86L60.38,117.966z M40.108,131.09c-4.61,0-8.945-1.796-12.206-5.058l-6.604-6.603
		c-6.729-6.731-6.73-17.681-0.002-24.409l73.718-73.719c3.26-3.259,7.594-5.054,12.204-5.054c4.611,0,8.946,1.796,12.207,5.057
		l6.604,6.603c3.26,3.261,5.056,7.597,5.056,12.207c0,2.949-0.734,5.785-2.118,8.299l-12.119-12.12
		c-1.524-1.523-3.59-2.379-5.745-2.379c-2.155,0-4.22,0.856-5.745,2.379l-69.07,69.069c-3.173,3.174-3.173,8.316,0,11.489
		l12.12,12.119C45.894,130.356,43.057,131.09,40.108,131.09z M129.451,71.872l12.756,12.755c-1.422,0.948-2.814,1.902-4.174,2.855
		c-0.023,0.016-0.045,0.031-0.068,0.048c-0.263,0.185-0.535,0.37-0.796,0.555c-0.193,0.138-0.385,0.279-0.576,0.42l-0.36,0.262
		c-0.248,0.178-0.49,0.363-0.737,0.542c-0.917,0.665-1.832,1.336-2.738,2.016c-0.236,0.177-0.477,0.346-0.712,0.523
		c-0.426,0.322-0.848,0.651-1.271,0.979l-0.081,0.063c-1.095,0.844-2.179,1.701-3.258,2.566c-0.159,0.128-0.321,0.249-0.479,0.378
		c-0.08,0.065-0.16,0.132-0.24,0.197c-2.099,1.699-4.163,3.442-6.197,5.224c-0.133,0.117-0.269,0.232-0.402,0.349
		c-0.1,0.088-0.195,0.178-0.294,0.265c-1.171,1.035-2.33,2.084-3.477,3.147l-0.002,0.002c-0.357,0.326-0.715,0.652-1.076,0.99
		c-0.165,0.155-0.317,0.301-0.479,0.453c-0.328,0.311-0.657,0.621-0.983,0.934c-1.167,1.115-2.242,2.163-3.249,3.169
		c-1.151,1.151-2.288,2.319-3.412,3.497c-0.355,0.373-0.702,0.752-1.054,1.126c-0.767,0.816-1.532,1.633-2.285,2.462
		c-0.399,0.438-0.79,0.881-1.184,1.321c-0.703,0.785-1.403,1.573-2.093,2.369c-0.386,0.444-0.766,0.891-1.147,1.339
		c-0.704,0.825-1.403,1.656-2.094,2.492c-0.337,0.407-0.672,0.817-1.004,1.226c-0.747,0.919-1.486,1.844-2.216,2.774
		c-0.262,0.334-0.525,0.667-0.785,1.003c-0.835,1.078-1.658,2.163-2.471,3.255c-0.146,0.197-0.296,0.393-0.442,0.59
		c-1.115,1.509-2.215,3.026-3.284,4.561c-0.773,1.11-1.529,2.239-2.283,3.366c-0.058,0.088-0.12,0.174-0.18,0.262l-12.755-12.755
		L129.451,71.872z M451.61,394.034l6.857,6.859l-57.579,57.581l-6.859-6.858L451.61,394.034z M401.489,401.497
		c9.757-9.758,18.423-20.357,25.94-31.643l12.691,12.691l-57.581,57.582l-12.675-12.674
		C381.115,419.947,391.709,411.277,401.489,401.497z M490.69,416.978l-73.717,73.719c-3.261,3.26-7.594,5.056-12.202,5.056h-0.001
		c-4.611-0.001-8.946-1.797-12.206-5.058l-6.605-6.605c-3.261-3.26-5.057-7.595-5.057-12.204c-0.001-2.949,0.734-5.785,2.119-8.299
		l12.12,12.119c3.171,3.171,8.315,3.173,11.488-0.001l69.068-69.069c3.173-3.174,3.173-8.316,0-11.488l-12.118-12.12
		c2.514-1.382,5.351-2.118,8.301-2.118c4.61,0,8.945,1.795,12.204,5.055l6.604,6.606c3.261,3.26,5.057,7.595,5.057,12.205
		S493.951,413.719,490.69,416.978z"/>
	<path style="fill:#202020;" d="M135.54,376.516c0.004,0.004,0.01,0.009,0.014,0.013c32.179,32.174,74.964,49.893,120.47,49.894
		c0.003,0-0.001,0,0.002,0c45.511,0,88.303-17.727,120.484-49.908c0.072-0.072,0.14-0.144,0.21-0.216
		c0.025-0.024,0.052-0.044,0.077-0.069c0.04-0.04,0.074-0.085,0.114-0.126c31.926-32.137,49.508-74.754,49.508-120.077
		c0-45.514-17.725-88.303-49.907-120.485c-32.184-32.183-74.974-49.906-120.486-49.906s-88.302,17.724-120.484,49.906
		c-32.184,32.185-49.908,74.975-49.908,120.488c0,45.506,17.72,88.29,49.895,120.471
		C135.531,376.507,135.536,376.512,135.54,376.516z M118.362,186.511l19.349,19.349c-7.628,3.308-13.696,9.714-16.467,17.782
		l-12.699-12.699C111.107,202.525,114.392,194.356,118.362,186.511z M172.641,126.333l35.89,35.89
		c0.074,0.074,0.154,0.138,0.231,0.208c-1.829,6.737-5.792,14.499-12.333,21.939l-43.201-43.201
		C159.35,135.677,165.84,130.725,172.641,126.333z M211.824,108.288l11.062,11.061c-7.23,4.66-12.167,12.273-13.438,20.813
		l-22.178-22.178C195.158,114.047,203.367,110.806,211.824,108.288z M174.088,218.228l4.164,8.997
		c1.373,2.968,4.31,4.715,7.378,4.715c1.142,0,2.302-0.243,3.407-0.753c4.073-1.884,5.845-6.712,3.961-10.784l-4.083-8.824
		c3.337-1.983,6.596-4.27,9.728-6.829l5.112,5.068c1.585,1.571,3.651,2.355,5.719,2.355c2.09,0,4.181-0.802,5.769-2.405
		c3.158-3.186,3.137-8.329-0.05-11.488l-5.004-4.961c3.01-3.605,5.527-7.235,7.606-10.824c0.159,0.052,0.315,0.109,0.48,0.152
		l13.608,3.557c0.689,0.181,1.379,0.266,2.059,0.266c3.606,0,6.9-2.419,7.854-6.071c1.135-4.34-1.464-8.778-5.805-9.913
		l-11.751-3.072c2.203-7.855,2.417-14.916,1.381-20.268c-1.434-7.42,3.436-14.624,10.854-16.06c0.87-0.168,1.753-0.252,2.627-0.252
		c6.538,0,12.188,4.672,13.432,11.109c4.857,25.118-6.094,54.578-28.58,76.881c-18.698,18.548-42.221,29.184-64.537,29.184
		c-4.31,0-8.541-0.413-12.57-1.226c-3.59-0.725-6.683-2.804-8.709-5.853s-2.741-6.705-2.017-10.293c1.287-6.374,6.929-11,13.415-11
		c0.91,0,1.828,0.092,2.731,0.274c2.204,0.445,4.578,0.67,7.055,0.67C164.102,220.575,169.085,219.759,174.088,218.228z
		 M278.618,175.081c-7.105,4.949-11.817,12.823-12.717,21.535l-4.315-4.315c3.781-8.774,6.323-17.784,7.52-26.733L278.618,175.081z
		 M370.615,152.928c18.06,20.024,30.338,44.019,35.993,69.94l-52.966-52.966L370.615,152.928z M342.152,158.413l-52.967-52.966
		c25.92,5.654,49.916,17.932,69.94,35.992L342.152,158.413z M408.83,248.068c0.368,0.367,0.765,0.688,1.18,0.97
		c0.103,2.321,0.161,4.651,0.161,6.99c0,8.64-0.715,17.17-2.1,25.528l-25.329-25.329c-0.235-2.389-0.564-4.76-1.016-7.1
		c-2.72-14.064-15.079-24.271-29.386-24.271c-0.315,0-0.63,0.013-0.947,0.023l-25.447-25.445c-0.065-0.54-0.142-1.079-0.218-1.617
		l16.424-16.424L408.83,248.068z M394.07,324.784l-20.16-20.159c3.903-8.576,6.626-17.403,8.055-26.198l21.802,21.801
		C401.249,308.686,398.007,316.897,394.07,324.784z M370.884,358.827l-20.244-20.244c5.767-5.98,10.839-12.397,15.152-19.098
		l19.929,19.928C381.33,346.214,376.378,352.705,370.884,358.827z M340.104,385.273l-22.219-22.219
		c7.204-3.684,14.174-8.206,20.753-13.497l20.792,20.793C353.341,375.873,346.876,380.849,340.104,385.273z M301.113,403.509
		l-28.999-28.999c0.181,0.001,0.36,0.013,0.54,0.013c0.002,0,0.002,0,0.003,0c9.629,0,19.406-1.631,28.993-4.726l23.894,23.894
		C317.699,397.665,309.531,400.948,301.113,403.509z M253.696,207.388l11.339,11.338c-2.027,6.707-6.086,14.317-12.674,21.577
		l-13.519-13.519C244.524,220.695,249.494,214.178,253.696,207.388z M227.034,237.955l13.023,13.023
		c-9.134,6.115-17.971,8.487-24.119,8.487c-0.598,0-1.164-0.033-1.72-0.075l-7.623-7.624
		C213.702,247.959,220.569,243.333,227.034,237.955z M190.632,258.78l2.674,2.674c-7.489,3.587-13.354,10.208-15.821,18.429
		l-15.667-15.667C171.416,263.95,181.131,262.084,190.632,258.78z M309.744,263.436l11.567,11.567
		c-0.527,1.588-1.169,3.222-1.928,4.886c-0.034,0.067-0.064,0.135-0.095,0.203c-2.425,5.253-6.05,10.789-11.028,16.111
		l-13.513-13.513C300.472,276.654,305.485,270.183,309.744,263.436z M334.373,230.835c-6.984,5.244-11.46,13.395-11.963,22.288
		l-4.662-4.661c3.842-8.675,6.472-17.591,7.787-26.465L334.373,230.835z M337.192,329.093
		c-18.696,18.547-42.22,29.183-64.537,29.183c-4.31,0-8.541-0.413-12.57-1.226c-7.409-1.496-12.22-8.74-10.725-16.147
		c1.287-6.374,6.929-11,13.415-11c0.91,0,1.828,0.092,2.731,0.274c2.204,0.445,4.578,0.67,7.055,0.67
		c4.802,0,9.804-0.823,14.826-2.367l1.482,3.202c1.373,2.968,4.31,4.715,7.378,4.715c1.142,0,2.302-0.243,3.406-0.753
		c4.073-1.884,5.845-6.712,3.961-10.784l-1.408-3.042c3.379-2.011,6.68-4.332,9.846-6.932l4.282,4.012
		c1.566,1.469,3.561,2.196,5.552,2.196c2.168,0,4.33-0.862,5.93-2.569c3.068-3.273,2.901-8.415-0.374-11.483l-3.868-3.624
		c2.865-3.451,5.284-6.924,7.295-10.359l7.317,1.913c0.689,0.181,1.379,0.266,2.059,0.266c3.606,0,6.9-2.419,7.854-6.071
		c1.135-4.34-1.464-8.778-5.805-9.913l-4.899-1.28c2.279-7.97,2.513-15.139,1.466-20.557c-1.434-7.42,3.436-14.624,10.854-16.06
		c0.87-0.168,1.753-0.252,2.627-0.252c6.539,0,12.19,4.672,13.434,11.109C370.632,277.329,359.679,306.787,337.192,329.093z
		 M282.836,293.757l12.941,12.941c-8.813,5.677-17.273,7.902-23.22,7.902c-1.236,0-2.371-0.107-3.416-0.288l-6.901-6.901
		C269.397,303.666,276.313,299.092,282.836,293.757z M246.149,314.299l2.798,2.798c-7.361,3.865-12.996,10.712-15.145,19.104
		l-16.826-16.826C226.678,319.268,236.517,317.53,246.149,314.299z M280.572,273.956c-18.698,18.548-42.221,29.184-64.537,29.184
		c-4.31,0-8.541-0.413-12.57-1.226c-3.59-0.725-6.683-2.804-8.709-5.853c-2.025-3.049-2.741-6.705-2.017-10.293
		c1.287-6.374,6.929-11,13.415-11c0.91,0,1.828,0.092,2.731,0.274c2.204,0.445,4.578,0.67,7.055,0.67
		c5.136,0,10.503-0.952,15.877-2.711l3.266,7.057c1.373,2.968,4.31,4.715,7.378,4.715c1.142,0,2.302-0.243,3.407-0.753
		c4.073-1.884,5.845-6.712,3.961-10.784l-3.299-7.129c3.101-1.906,6.132-4.066,9.045-6.471l5.903,5.262
		c1.549,1.38,3.479,2.059,5.402,2.059c2.236,0,4.463-0.919,6.068-2.719c2.985-3.349,2.689-8.484-0.659-11.469l-5.208-4.641
		c2.462-2.98,4.589-5.976,6.412-8.95c0.505,0.255,1.042,0.464,1.612,0.612l13.608,3.557c0.689,0.181,1.379,0.266,2.059,0.266
		c3.606,0,6.9-2.419,7.854-6.071c1.135-4.34-1.464-8.778-5.805-9.913l-12.502-3.268c2.702-8.58,3.036-16.319,1.922-22.079
		c-1.434-7.42,3.436-14.624,10.854-16.06c0.87-0.168,1.753-0.252,2.627-0.252c6.538,0,12.188,4.672,13.432,11.109
		C314.009,222.194,303.058,251.653,280.572,273.956z M121.522,246.899c0.65,0.649,1.384,1.158,2.165,1.541
		c0.291,0.497,0.592,0.989,0.914,1.473c2.558,3.852,5.898,6.988,9.771,9.26c0.379,0.748,0.876,1.451,1.501,2.076l51.72,51.72
		l-17.124,17.124l-68.137-68.137c-0.11-0.111-0.23-0.208-0.344-0.311c-0.066-1.867-0.112-3.738-0.112-5.616
		c0-8.982,0.764-17.844,2.258-26.517L121.522,246.899z M158.982,341.585l-17.546,17.547c-18.398-20.398-30.793-44.918-36.301-71.394
		L158.982,341.585z M170.472,353.074l53.846,53.846c-26.475-5.508-50.995-17.902-71.393-36.3L170.472,353.074z M256.024,410.176
		c-2.021,0-4.035-0.05-6.043-0.127c-0.357-0.64-0.802-1.246-1.345-1.789l-66.676-66.676l17.124-17.124l83.458,83.457
		C273.869,409.413,265.006,410.176,256.024,410.176z M263.033,102.046c0.294,0.441,0.634,0.86,1.022,1.25l66.607,66.606
		l-11.374,11.374c-5.427-6.946-13.792-11.367-23.031-11.533l-27.162-27.161c-0.178-1.249-0.375-2.493-0.613-3.727
		c-2.585-13.373-13.889-23.238-27.292-24.179l-10.694-10.692c8.358-1.385,16.886-2.1,25.527-2.1
		C258.369,101.884,260.706,101.943,263.033,102.046z M141.704,152.625l42.615,42.615c-9.446,6.564-18.655,9.089-25.001,9.089
		c-0.057,0-0.108-0.007-0.166-0.008l-32.37-32.37C131.206,165.181,136.182,158.714,141.704,152.625z"/>
</g>
<g>
</g>
<g>
</g>
<g>
</g>
<g>
</g>
<g>
</g>
<g>
</g>
<g>
</g>
<g>
</g>
<g>
</g>
<g>
</g>
<g>
</g>
<g>
</g>
<g>
</g>
<g>
</g>
<g>
</g>
</svg>
