<?xml version="1.0" encoding="iso-8859-1"?>
<!-- Generator: Adobe Illustrator 19.0.0, SVG Export Plug-In . SVG Version: 6.00 Build 0)  -->
<svg xmlns="http://www.w3.org/2000/svg" xmlns:xlink="http://www.w3.org/1999/xlink" version="1.1" id="Layer_1" x="0px" y="0px" viewBox="0 0 403.54 403.54" style="enable-background:new 0 0 403.54 403.54;" xml:space="preserve" width="512" height="512">
<g>
	<polygon style="fill:#2BA5F7;" points="150.273,160.734 177.023,163.874 226.523,169.664 226.523,169.674 253.273,172.804    302.773,178.604 326.713,181.404 351.563,276.114 326.723,271.354 76.823,223.484 51.973,218.724 76.823,152.134 100.723,154.934     "/>
	<polygon style="fill:#2BA5F7;" points="326.723,271.364 326.723,396.044 76.823,396.044 76.823,223.494 76.823,223.484    326.723,271.354  "/>
	<polygon style="fill:#995C0D;" points="302.773,126.064 302.773,178.604 253.273,172.804 253.273,126.064  "/>
	<rect x="253.263" y="29.864" style="fill:#995C0D;" width="49.5" height="72"/>
	<rect x="177.023" y="29.864" style="fill:#995C0D;" width="49.5" height="72"/>
	<rect x="100.773" y="29.864" style="fill:#995C0D;" width="49.5" height="72"/>
	<path style="fill:#B27214;" d="M326.723,167.664v13.74h-0.01l-23.94-2.8v-52.54h-49.5v46.74l-26.75-3.13v-0.01v-43.6h-49.5v37.81   l-26.75-3.14v-34.67h-49.49v28.37l-0.06,0.5l-23.9-2.8V7.504h249.9V167.664z M302.763,101.864v-72h-49.5v72H302.763z    M226.523,101.864v-72h-49.5v72H226.523z M150.273,101.864v-72h-49.5v72H150.273z"/>
	<polygon style="fill:#995C0D;" points="226.523,126.064 226.523,169.664 177.023,163.874 177.023,126.064  "/>
	<polygon style="fill:#995C0D;" points="150.273,126.064 150.273,160.734 100.723,154.934 100.783,154.434 100.783,126.064  "/>
	<polygon style="fill:#2197D8;" points="328.91,293.534 75.423,286.034 76.823,223.484 326.723,271.354  "/>
	<path style="fill:#FFFFFF;" d="M320.051,254.16c-3.327,0-6.366-2.23-7.25-5.599l-10.307-39.283l-3.266-0.382   c-4.114-0.481-7.059-4.207-6.577-8.321c0.482-4.113,4.205-7.061,8.321-6.577l8.349,0.978c3.066,0.359,5.599,2.56,6.382,5.546   l11.606,44.233c1.051,4.007-1.344,8.106-5.351,9.158C321.321,254.08,320.681,254.16,320.051,254.16z"/>
	<path style="fill:#FFFFFF;" d="M303.412,382.029c-4.142,0-7.5-3.357-7.5-7.5v-62.997c0-4.143,3.358-7.5,7.5-7.5s7.5,3.357,7.5,7.5   v62.997C310.912,378.672,307.554,382.029,303.412,382.029z"/>
	<path style="fill:#FFFFFF;" d="M285.43,89.507c-4.142,0-7.5-3.357-7.5-7.5V50.53c0-4.143,3.358-7.5,7.5-7.5s7.5,3.357,7.5,7.5   v31.477C292.93,86.149,289.572,89.507,285.43,89.507z"/>
	<path style="fill:#FFFFFF;" d="M132.763,89.507c-4.142,0-7.5-3.357-7.5-7.5V50.53c0-4.143,3.358-7.5,7.5-7.5s7.5,3.357,7.5,7.5   v31.477C140.263,86.149,136.905,89.507,132.763,89.507z"/>
	<path style="fill:#FFFFFF;" d="M209.096,89.507c-4.142,0-7.5-3.357-7.5-7.5V50.53c0-4.143,3.358-7.5,7.5-7.5s7.5,3.357,7.5,7.5   v31.477C216.596,86.149,213.238,89.507,209.096,89.507z"/>
	<path style="fill:#FFFFFF;" d="M285.43,160.841c-4.142,0-7.5-3.357-7.5-7.5v-8.144c0-4.143,3.358-7.5,7.5-7.5s7.5,3.357,7.5,7.5   v8.144C292.93,157.483,289.572,160.841,285.43,160.841z"/>
	<path style="fill:#FFFFFF;" d="M209.096,156.174c-4.142,0-7.5-3.357-7.5-7.5v-3.477c0-4.143,3.358-7.5,7.5-7.5s7.5,3.357,7.5,7.5   v3.477C216.596,152.816,213.238,156.174,209.096,156.174z"/>
	<circle style="fill:#FFFFFF;" cx="133.343" cy="145.197" r="7.5"/>
	<g>
		<path style="fill:#333333;" d="M358.822,274.214l-24.603-93.768V7.5c0-4.143-3.358-7.5-7.5-7.5H76.82c-4.142,0-7.5,3.357-7.5,7.5    v143.291l-24.374,65.314c-0.772,2.068-0.593,4.373,0.489,6.298s2.958,3.274,5.126,3.69l18.758,3.594V396.04    c0,4.143,3.358,7.5,7.5,7.5h249.9c4.142,0,7.5-3.357,7.5-7.5V280.431l15.937,3.053c0.47,0.09,0.942,0.134,1.411,0.134    c2.056,0,4.047-0.847,5.479-2.378C358.805,279.357,359.476,276.705,358.822,274.214z M319.219,15v157.975l-8.95-1.048v-45.866    c0-4.143-3.358-7.5-7.5-7.5h-49.5c-4.142,0-7.5,3.357-7.5,7.5v38.312l-11.75-1.376v-36.936c0-4.143-3.358-7.5-7.5-7.5h-49.5    c-4.142,0-7.5,3.357-7.5,7.5v29.381l-11.75-1.376v-28.005c0-4.143-3.358-7.5-7.5-7.5h-49.49c-4.142,0-7.5,3.357-7.5,7.5v20.451    l-8.96-1.05V15H319.219z M295.269,170.17l-34.5-4.041v-32.568h34.5V170.17z M219.019,161.239l-34.5-4.041v-23.638h34.5V161.239z     M142.769,152.309l-34.49-4.04v-14.708h34.49V152.309z M319.219,388.54H84.32V232.561l234.9,44.997V388.54z M62.103,213.032    l19.69-52.763l238.968,27.988l20.532,78.255L62.103,213.032z"/>
		<path style="fill:#333333;" d="M100.775,109.359h49.498c4.142,0,7.5-3.357,7.5-7.5V29.863c0-4.143-3.358-7.5-7.5-7.5h-49.498    c-4.142,0-7.5,3.357-7.5,7.5v71.996C93.275,106.002,96.633,109.359,100.775,109.359z M108.275,37.363h34.498v56.996h-34.498    V37.363z"/>
		<path style="fill:#333333;" d="M177.021,109.359h49.498c4.142,0,7.5-3.357,7.5-7.5V29.863c0-4.143-3.358-7.5-7.5-7.5h-49.498    c-4.142,0-7.5,3.357-7.5,7.5v71.996C169.521,106.002,172.879,109.359,177.021,109.359z M184.521,37.363h34.498v56.996h-34.498    V37.363z"/>
		<path style="fill:#333333;" d="M253.267,109.359h49.498c4.142,0,7.5-3.357,7.5-7.5V29.863c0-4.143-3.358-7.5-7.5-7.5h-49.498    c-4.142,0-7.5,3.357-7.5,7.5v71.996C245.767,106.002,249.125,109.359,253.267,109.359z M260.767,37.363h34.498v56.996h-34.498    V37.363z"/>
	</g>
</g>















</svg>
