<?xml version="1.0" encoding="iso-8859-1"?>
<!-- Generator: Adobe Illustrator 19.0.0, SVG Export Plug-In . SVG Version: 6.00 Build 0)  -->
<svg xmlns="http://www.w3.org/2000/svg" xmlns:xlink="http://www.w3.org/1999/xlink" version="1.1" id="Capa_1" x="0px" y="0px" viewBox="0 0 470 470" style="enable-background:new 0 0 470 470;" xml:space="preserve" width="512" height="512">
<g>
	<path style="fill:#EF431D;" d="M235,37.5v90c24.853,0,45-20.147,45-45S259.853,37.5,235,37.5z"/>
	<path style="fill:#FD7555;" d="M250,82.5c0-24.853-6.716-45-15-45c-24.853,0-45,20.147-45,45s20.147,45,45,45   C243.284,127.5,250,107.353,250,82.5z"/>
	<polygon style="fill:#FDA162;" points="386.392,192.526 326.392,162.526 347.5,412.5 407.5,382.5  "/>
	<polygon style="fill:#FDCE6E;" points="83.608,192.526 62.5,382.5 379.722,402.5 354.17,172.527  "/>
	<path style="fill:#975D50;" d="M377.5,112.5h-30l-30,46.517l40.337,46.517c7.773-5.629,13.753-12.672,28.237-13.008L377.5,112.5z"/>
	<path style="fill:#B1786B;" d="M92.5,112.5l-8.574,80.027c18.145,0.421,22.942,11.371,34.642,16.875V317.5c0,8.284,6.716,15,15,15   c8.284,0,15-6.716,15-15V209.399c11.925-5.617,16.666-16.899,35.711-16.899c25.357,0,25.357,20,50.714,20   c25.356,0,25.356-20,50.712-20c25.359,0,25.359,20,50.719,20c10.082,0,16.157-3.16,21.413-6.966L347.5,112.5H92.5z"/>
	<path style="fill:#FDCE6E;" d="M407.5,397.5l-51.667,65h30c16.5,0,34.269-12.807,39.487-28.46l12.18-36.54H407.5z"/>
	<path style="fill:#FDFA7B;" d="M32.5,397.5l12.18,36.54c5.218,15.653,22.987,28.46,39.487,28.46h271.667   c16.5,0,34.269-12.807,39.487-28.46l12.18-36.54H32.5z"/>
	<path style="fill:#FEFDCA;" d="M447.5,382.5h-425c-8.284,0-15,6.716-15,15s6.716,15,15,15h425c8.284,0,15-6.716,15-15   S455.784,382.5,447.5,382.5z"/>
	<path d="M447.5,375h-33.287l-29.259-263.328c-0.422-3.799-3.632-6.672-7.454-6.672h-95.071c3.308-6.972,5.071-14.64,5.071-22.5   c0-26.572-19.848-48.582-45.494-52.019c-1.493-10.673-6.375-20.531-14.129-28.285c-2.929-2.928-7.678-2.928-10.606,0   c-2.929,2.93-2.929,7.678,0,10.607c4.949,4.949,8.23,11.121,9.56,17.835C201.748,34.575,182.5,56.33,182.5,82.5   c0,4.143,3.358,7.5,7.5,7.5s7.5-3.357,7.5-7.5c0-20.678,16.822-37.5,37.5-37.5s37.5,16.822,37.5,37.5   c0,8.16-2.646,16.033-7.503,22.5H92.5c-3.822,0-7.032,2.873-7.454,6.672L55.787,375H22.5C10.093,375,0,385.094,0,397.5   S10.093,420,22.5,420h9.594l5.47,16.411C43.843,455.246,64.313,470,84.167,470h301.667c19.854,0,40.324-14.754,46.602-33.589   l5.47-16.411h9.594c12.407,0,22.5-10.094,22.5-22.5S459.907,375,447.5,375z M99.213,120h169.212c0.037,0,0.073,0.005,0.11,0.005   c0.032,0,0.064-0.004,0.095-0.005h102.157l7.318,65.862c-9.71,1.912-15.838,6.725-20.952,10.753   C351.204,201.3,346.505,205,336.424,205c-10.079,0-14.772-3.702-20.715-8.389c-6.56-5.174-14.723-11.611-30.004-11.611   c-15.28,0-23.442,6.438-30.001,11.611c-5.941,4.687-10.635,8.389-20.711,8.389c-10.077,0-14.77-3.702-20.712-8.389   C207.722,191.438,199.559,185,184.279,185c-15.28,0-23.443,6.438-30.002,11.611c-2.928,2.31-5.694,4.49-8.905,6.003   c-2.627,1.238-4.304,3.881-4.304,6.785V317.5c0,4.136-3.364,7.5-7.5,7.5s-7.5-3.364-7.5-7.5V209.401   c0-2.905-1.678-5.55-4.308-6.787c-3.214-1.512-5.983-3.691-8.914-6c-5.114-4.028-11.242-8.84-20.951-10.752L99.213,120z    M90.231,200.84c5.429,1.341,9.051,4.185,13.335,7.558c2.238,1.763,4.679,3.685,7.502,5.438V317.5c0,12.406,10.093,22.5,22.5,22.5   s22.5-10.094,22.5-22.5V213.831c2.822-1.755,5.261-3.679,7.498-5.442c5.942-4.687,10.636-8.389,20.713-8.389   s14.77,3.702,20.712,8.389C211.55,213.561,219.712,220,234.993,220c15.28,0,23.442-6.438,30-11.611   c5.942-4.687,10.635-8.389,20.711-8.389c10.078,0,14.772,3.702,20.715,8.389c6.56,5.173,14.723,11.611,30.004,11.611   c15.279,0,23.446-6.433,30.009-11.601c4.284-3.374,7.906-6.219,13.336-7.559L399.121,375H70.879L90.231,200.84z M447.5,405h-14.829   c-0.025-0.001-0.049,0-0.074,0H97.5c-4.142,0-7.5,3.357-7.5,7.5s3.358,7.5,7.5,7.5h324.594l-3.889,11.667   C413.989,444.314,399.165,455,385.833,455H84.167c-13.332,0-28.156-10.686-32.372-23.333L47.906,420H67.5   c4.142,0,7.5-3.357,7.5-7.5s-3.358-7.5-7.5-7.5h-45c-4.136,0-7.5-3.364-7.5-7.5s3.364-7.5,7.5-7.5h425c4.136,0,7.5,3.364,7.5,7.5   S451.636,405,447.5,405z"/>
	<circle cx="340.171" cy="315" r="7.5"/>
	<circle cx="310.171" cy="345" r="7.5"/>
</g>















</svg>
