<?xml version="1.0" encoding="iso-8859-1"?>
<!-- Generator: Adobe Illustrator 19.0.0, SVG Export Plug-In . SVG Version: 6.00 Build 0)  -->
<svg version="1.1" id="Layer_1" xmlns="http://www.w3.org/2000/svg" xmlns:xlink="http://www.w3.org/1999/xlink" x="0px" y="0px"
	 viewBox="0 0 512 512" style="enable-background:new 0 0 512 512;" xml:space="preserve">
<g>
	<path style="fill:#FE5D26;" d="M90.021,206.01c-24.046,0-46.652,9.363-63.655,26.367C9.363,249.379,0,271.986,0,296.032
		c0,24.046,9.363,46.652,26.367,63.656c17.003,17.003,39.61,26.367,63.655,26.366h49.305c32.814,34.647,79.25,56.264,130.737,56.264
		c99.435,0,180.044-80.609,180.044-180.044V206.01l-180.044-11.253L90.021,206.01z M90.022,352.295
		c-15.028,0-29.157-5.853-39.784-16.48c-10.627-10.627-16.48-24.756-16.48-39.784s5.853-29.158,16.479-39.784
		c10.626-10.626,24.755-16.48,39.783-16.48v22.505c0,32.795,8.773,63.54,24.092,90.022H90.022z"/>
	<path style="fill:#FE5D26;" d="M39.385,471.968L46,495.123c2.55,8.927,12.233,16.23,21.516,16.23h405.099
		c9.284,0,18.965-7.303,21.516-16.23l6.616-23.155H39.385z"/>
</g>
<path style="fill:#F63E31;" d="M503.56,480.408H36.571c-4.662,0-8.44-3.778-8.44-8.44c0-4.662,3.778-8.44,8.44-8.44H503.56
	c4.662,0,8.44,3.778,8.44,8.44C512,476.63,508.222,480.408,503.56,480.408z"/>
<g>
	<path style="fill:#E4B780;" d="M230.68,146.933c-4.661,0-8.44-3.778-8.44-8.44c-0.001-12.853,3.497-19.556,6.584-25.471
		c2.608-5,4.669-8.948,4.669-17.661c0-8.715-2.06-12.665-4.669-17.665c-3.086-5.916-6.584-12.619-6.584-25.473
		c-0.001-12.854,3.497-19.558,6.584-25.474c2.608-5,4.669-8.949,4.669-17.663c0-4.662,3.778-8.44,8.44-8.44
		c4.662,0,8.44,3.778,8.44,8.44c0,12.853-3.497,19.557-6.584,25.472c-2.608,5-4.669,8.95-4.669,17.666s2.06,12.665,4.669,17.665
		c3.086,5.914,6.583,12.619,6.584,25.473c0,12.853-3.497,19.556-6.584,25.471c-2.608,4.998-4.669,8.947-4.669,17.661
		C239.12,143.154,235.342,146.933,230.68,146.933z"/>
	<path style="fill:#E4B780;" d="M298.197,146.933c-4.661,0-8.44-3.778-8.44-8.44c-0.001-12.853,3.497-19.556,6.584-25.471
		c2.608-5,4.669-8.948,4.669-17.661c0-8.715-2.06-12.665-4.669-17.665c-3.086-5.916-6.584-12.619-6.584-25.473
		c-0.001-12.854,3.497-19.558,6.584-25.474c2.608-5,4.669-8.949,4.669-17.663c0-4.662,3.778-8.44,8.44-8.44s8.44,3.778,8.44,8.44
		c0,12.853-3.497,19.557-6.584,25.472c-2.608,5-4.669,8.95-4.669,17.666s2.06,12.665,4.669,17.665
		c3.086,5.914,6.583,12.619,6.584,25.473c0,12.853-3.497,19.556-6.584,25.471c-2.608,4.998-4.669,8.947-4.669,17.661
		C306.636,143.154,302.859,146.933,298.197,146.933z"/>
</g>
<path style="fill:#991D06;" d="M309.449,307.284c0,9.322,7.557,16.879,16.879,16.879s16.879-7.557,16.879-16.879V206.01h33.758
	v67.516c0,9.322,7.557,16.879,16.879,16.879s16.879-7.557,16.879-16.879V206.01h39.385v-33.758H90.021v33.758h219.429V307.284z"/>
<g>
</g>
<g>
</g>
<g>
</g>
<g>
</g>
<g>
</g>
<g>
</g>
<g>
</g>
<g>
</g>
<g>
</g>
<g>
</g>
<g>
</g>
<g>
</g>
<g>
</g>
<g>
</g>
<g>
</g>
</svg>
