<?xml version="1.0" encoding="iso-8859-1"?>
<!-- Generator: Adobe Illustrator 19.0.0, SVG Export Plug-In . SVG Version: 6.00 Build 0)  -->
<svg version="1.1" id="Layer_1" xmlns="http://www.w3.org/2000/svg" xmlns:xlink="http://www.w3.org/1999/xlink" x="0px" y="0px"
	 viewBox="0 0 504 504" style="enable-background:new 0 0 504 504;" xml:space="preserve">
<path style="fill:#8989CC;" d="M204.8,66.4C201.6,34.4,170.4,0,132,0S62.4,34.4,60,66.4H204.8z"/>
<path style="fill:#6965A8;" d="M132,66.4h72.8C201.6,34.4,170.4,0,132,0c-0.8,0,0,1.6,0,1.6V66.4z"/>
<polygon style="fill:#FFC114;" points="29.6,186.4 132,504 234.4,186.4 "/>
<g>
	<polygon style="fill:#FCA12A;" points="131.2,186.4 132,504 234.4,186.4 	"/>
	<polygon style="fill:#FCA12A;" points="131.2,186.4 132,504 234.4,186.4 	"/>
</g>
<rect x="12" y="122.4" style="fill:#FFC114;" width="240" height="64"/>
<g>
	<polyline style="fill:#FCA12A;" points="12,122.4 252,122.4 252,186.4 132,186.4 	"/>
	<polygon style="fill:#FCA12A;" points="216,242.4 220.8,226.4 43.2,226.4 48,242.4 	"/>
	<polygon style="fill:#FCA12A;" points="192.8,314.4 197.6,298.4 66.4,298.4 72,314.4 	"/>
	<polygon style="fill:#FCA12A;" points="168.8,386.4 173.6,370.4 90.4,370.4 95.2,386.4 	"/>
	<polygon style="fill:#FCA12A;" points="145.6,458.4 150.4,442.4 113.6,442.4 118.4,458.4 	"/>
</g>
<g>
	<polygon style="fill:#FFC114;" points="131.2,226.4 131.2,242.4 216,242.4 219.2,231.2 220.8,226.4 	"/>
	<polygon style="fill:#FFC114;" points="132,298.4 132,314.4 192.8,314.4 194.4,308 197.6,298.4 	"/>
	<polygon style="fill:#FFC114;" points="132,386.4 168.8,386.4 173.6,370.4 132,370.4 	"/>
	<polygon style="fill:#FFC114;" points="145.6,458.4 150.4,442.4 132,442.4 132,458.4 	"/>
</g>
<path style="fill:#F15249;" d="M169.6,122.4c-3.2-40-34.4-66.4-72.8-66.4s-68.8,26.4-72,66.4H169.6z"/>
<path style="fill:#C93131;" d="M92,122.4h77.6c-3.2-40-36-68.8-76.8-66.4C92,56,92,56.8,92,56.8V122.4z"/>
<path style="fill:#FFAF99;" d="M240.8,122.4C237.6,82.4,206.4,56,168,56s-69.6,26.4-72.8,66.4H240.8z"/>
<path style="fill:#FC9881;" d="M172,122.4h68.8c-3.2-40-34.4-64.8-68.8-66.4l0,0V122.4z"/>
<path style="fill:#3CC676;" d="M436,90.4V24c0-13.6-16.8-21.6-40.8-21.6H364c-24,0-39.2,8-39.2,21.6v66.4H436z"/>
<path style="fill:#0AA06E;" d="M436,90.4V24c0-13.6-16.8-21.6-40.8-21.6H364c-24,0-39.2,8-39.2,21.6"/>
<path style="fill:#8989CC;" d="M492,378.4V141.6c0-48-38.4-83.2-85.6-83.2H360c-48,0-84,35.2-84,83.2v236.8H492z"/>
<path style="fill:#FFC114;" d="M356,378.4v88.8c0,18.4,10.4,31.2,21.6,31.2h11.2c11.2,0,23.2-12,23.2-31.2v-88.8H356z"/>
<path style="fill:#6965A8;" d="M492,378.4V141.6c0-48-38.4-83.2-85.6-83.2H360c-48,0-84,32.8-84,85.6"/>
<g>
	<path style="fill:#8989CC;" d="M388,346.4c0,4.8-3.2,8-8,8l0,0c-4.8,0-8-3.2-8-8v-216c0-4.8,3.2-8,8-8l0,0c4.8,0,8,3.2,8,8V346.4z"
		/>
	<path style="fill:#8989CC;" d="M332,346.4c0,4.8-3.2,8-8,8l0,0c-4.8,0-8-3.2-8-8v-216c0-4.8,3.2-8,8-8l0,0c4.8,0,8,3.2,8,8V346.4z"
		/>
	<path style="fill:#8989CC;" d="M444,346.4c0,4.8-3.2,8-8,8l0,0c-4.8,0-8-3.2-8-8v-216c0-4.8,3.2-8,8-8l0,0c4.8,0,8,3.2,8,8V346.4z"
		/>
</g>
<path style="fill:#FCA12A;" d="M380,378.4v120h8.8c11.2,0,23.2-12,23.2-31.2v-88.8H380z"/>
<g>
</g>
<g>
</g>
<g>
</g>
<g>
</g>
<g>
</g>
<g>
</g>
<g>
</g>
<g>
</g>
<g>
</g>
<g>
</g>
<g>
</g>
<g>
</g>
<g>
</g>
<g>
</g>
<g>
</g>
</svg>
