<?xml version="1.0" encoding="UTF-8"?>
<svg viewBox="0 0 163.11092 151.67157" xmlns="http://www.w3.org/2000/svg">
 <defs>
  <linearGradient id="a" x1="169" x2="147.27" y1="322.72" y2="353.67" gradientUnits="userSpaceOnUse">
   <stop stop-color="#fff" offset="0"/>
   <stop stop-color="#fff" stop-opacity="0" offset="1"/>
  </linearGradient>
 </defs>
 <g transform="translate(-47 -519.86)">
  <path d="m47 519.86h163.11v151.67h-163.11z" fill="#fff" fill-opacity=".98431"/>
  <path d="m57.148 543.28c1.4828 4.142 0.80277 6.8642 0 9.5122h36.065c-1.5013-3.0114-1.1515-6.2518 0-9.5122h-36.065zm5.1374 2.7468h8.342c0.6339 0 1.1193 0.96782 1.1193 2.1365s-0.4854 2.0855-1.1193 2.0855h-8.342c-0.63442 0-1.1705-0.91683-1.1705-2.0855s0.53608-2.1365 1.1705-2.1365zm1.2209 9.614c1.7864 4.7599 0.8274 7.4222 0 10.123h30.011c-1.2472-3.1922-0.95607-6.6666 0-10.123h-30.011zm15.667 2.8994c0.07505-0.0276 0.12331 0 0.20371 0h8.4945c0.6457 0 1.1702 0.92897 1.1702 2.0856s-0.52454 2.0856-1.1702 2.0856h-8.4945c-0.6465 0-1.119-0.92901-1.119-2.0856 0-1.0119 0.38302-1.8915 0.9156-2.0856h-2.6e-4zm-22.891 10.072c1.7872 4.4904 1.0311 6.9647 0.20371 9.5122h36.726c-1.5206-3.0794-1.6586-6.4272 0-9.5122h-36.93 2.7e-4zm23.094 2.6451h8.4945c0.64569 0 1.1702 0.929 1.1702 2.0856s-0.52453 2.0856-1.1702 2.0856h-8.4945c-0.6465 0-1.1191-0.92901-1.1191-2.0856s0.47256-2.0856 1.1191-2.0856z" fill="#ccc"/>
  <path d="m138.97 521.62v29h22.486v-20.874l-8.3359-8.1256h-14.15zm10.157 2.1715 10.087 9.8768h-10.087v-9.8768z" fill="#e6e6e6"/>
  <path d="m94.527 605.95v31.5h24.424v-22.674l-9.0546-8.8261h-15.37zm11.033 2.3587 10.956 10.728h-10.956v-10.728z" fill="#e6e6e6"/>
  <path transform="matrix(.70536 -.70885 .70885 .70536 -38.836 369.5)" d="m-40.931 312.02h4.4763a6.4135 6.4135 0 0 1 6.4135 6.4135v58.909a6.4135 6.4135 0 0 1 -6.4135 6.4135h-4.4763a6.4135 6.4135 0 0 1 -6.4135 -6.4135v-58.909a6.4135 6.4135 0 0 1 6.4135 -6.4135" fill="#ff7800"/>
  <path transform="matrix(.70547 -.70874 .70901 .7052 -38.836 369.5)" d="m-40.68843,298.45224h3.90192a.37938,.37938 0 0,1 .37938.37938v11.38142a.37938,.37938 0 0,1 -.37938.37938h-3.90192a.37938,.37938 0 0,1 -.37938-.37938v-11.38142a.37938,.37938 0 0,1 .37938-.37938" fill="#ff7800" fill-opacity=".98431"/>
  <path transform="matrix(.66096 .28798 -.28798 .66096 94.685 324.52)" d="m219 311.18c0 27.614-22.386 50-50 50s-50-22.386-50-50 22.386-50 50-50 50 22.386 50 50z" fill="none" stroke="#ff7800" stroke-linecap="round" stroke-width="8.412"/>
  <path transform="matrix(.65605 .28584 -.27999 .64262 92.991 330.64)" d="m219 311.18c0 27.614-22.386 50-50 50s-50-22.386-50-50 22.386-50 50-50 50 22.386 50 50z" fill="url(#a)" stroke="#e6e6e6" stroke-linecap="round" stroke-width="2.3026"/>
  <path d="m49.837 598.78c0.95084 2.6561 0.51479 4.4018 0 6.0998h23.127c-0.96271-1.9311-0.73841-4.009 0-6.0998h-23.127zm3.2944 1.7614h5.3494c0.4065 0 0.71776 0.62063 0.71776 1.37s-0.31126 1.3374-0.71776 1.3374h-5.3494c-0.40683 0-0.7506-0.58793-0.7506-1.3374s0.34377-1.37 0.7506-1.37zm0.78293 6.1651c1.1456 3.0523 0.53058 4.7596 0 6.4913h19.245c-0.79975-2.047-0.61309-4.275 0-6.4913h-19.245zm10.047 1.8593c0.04813-0.0177 0.07907 0 0.13064 0h5.4472c0.41406 0 0.75043 0.59571 0.75043 1.3374s-0.33637 1.3374-0.75043 1.3374h-5.4472c-0.41458 0-0.71761-0.59573-0.71761-1.3374 0-0.64892 0.24562-1.213 0.58714-1.3374h-1.7e-4zm-14.679 6.4587c1.1461 2.8796 0.66122 4.4662 0.13064 6.0998h23.551c-0.97509-1.9747-1.0636-4.1215 0-6.0998h-23.682 1.7e-4zm14.81 1.6962h5.4472c0.41406 0 0.75042 0.59573 0.75042 1.3374s-0.33636 1.3374-0.75042 1.3374h-5.4472c-0.41457 0-0.71761-0.59574-0.71761-1.3374s0.30304-1.3374 0.71761-1.3374z" fill="#ccc"/>
  <path d="m161.94 576.38c1.1699 3.2679 0.63337 5.4157 0 7.5049h28.454c-1.1845-2.376-0.90849-4.9325 0-7.5049h-28.454zm4.0533 2.1672h6.5816c0.50014 0 0.8831 0.76358 0.8831 1.6856s-0.38296 1.6454-0.8831 1.6454h-6.5816c-0.50054 0-0.9235-0.72335-0.9235-1.6454s0.42296-1.6856 0.9235-1.6856zm0.96327 7.5852c1.4094 3.7554 0.6528 5.8559 0 7.9865h23.678c-0.98397-2.5185-0.75431-5.2598 0-7.9865h-23.678zm12.361 2.2876c0.0592-0.0218 0.0973 0 0.16073 0h6.7019c0.50943 0 0.92328 0.73293 0.92328 1.6455s-0.41385 1.6454-0.92328 1.6454h-6.7019c-0.51008 0-0.88291-0.73295-0.88291-1.6454 0-0.7984 0.3022-1.4924 0.72238-1.6455h-2e-4zm-18.06 7.9464c1.4101 3.5428 0.81353 5.495 0.16073 7.5049h28.976c-1.1997-2.4296-1.3086-5.0708 0-7.5049h-29.137 2.1e-4zm18.221 2.0869h6.7019c0.50943 0 0.92327 0.73296 0.92327 1.6455s-0.41384 1.6455-0.92327 1.6455h-6.7019c-0.51007 0-0.88291-0.73297-0.88291-1.6455s0.37284-1.6455 0.88291-1.6455z" fill="#ccc"/>
 </g>
</svg>
